<svg width="90" height="90" viewBox="0 0 90 90" fill="none" xmlns="http://www.w3.org/2000/svg">
<g clip-path="url(#clip0_1_2)">
<path d="M90 45C90 20.1511 69.8488 0 45 0C20.1511 0 0 20.1511 0 45C0 69.8488 20.1511 90 45 90C69.8488 90 90 69.8488 90 45Z" fill="#334D5C"/>
<path d="M55.8102 42.4426C61.7775 36.4752 61.7775 26.7715 55.8102 20.8041C49.8428 14.8367 40.1391 14.8367 34.1717 20.8041C28.2044 26.7715 28.2044 36.4752 34.1717 42.4426C40.1572 48.4099 49.8428 48.4099 55.8102 42.4426Z" fill="#EFB533"/>
<path d="M55.8102 42.4426C61.7775 36.4752 61.7775 26.7715 55.8102 20.8041L34.1898 42.4426C40.1572 48.4099 49.8428 48.4099 55.8102 42.4426Z" fill="#E5AA17"/>
<path d="M45 44.873C52.3226 44.873 58.2588 38.9369 58.2588 31.6143C58.2588 24.2917 52.3226 18.3555 45 18.3555C37.6774 18.3555 31.7412 24.2917 31.7412 31.6143C31.7412 38.9369 37.6774 44.873 45 44.873Z" fill="#F4DE7F"/>
<path d="M54.3773 40.9915C59.5647 35.8041 59.5647 27.4244 54.3773 22.237L35.6227 40.9915C40.8102 46.179 49.1898 46.179 54.3773 40.9915Z" fill="#F2D55A"/>
<path d="M50.0786 27.0435C50.0786 28.023 48.9722 28.7122 48.9178 28.6215C48.1016 27.6602 46.6868 26.9528 45.2539 26.9528C43.8029 26.9528 42.9141 27.6058 42.9141 28.5852C42.9141 29.7098 44.1112 30.0181 45.7799 30.3809C47.7751 30.8162 50.3869 31.6143 50.3869 34.4619C50.3869 36.6566 48.8634 38.162 46.3422 38.5611V39.4135C46.3422 40.4111 45.9613 40.8827 45.0907 40.8827H44.9819C44.075 40.8827 43.7485 40.4293 43.7485 39.4135V38.6155C41.1185 38.3253 39.6312 37.1463 39.6312 35.9311C39.6312 35.006 40.6651 34.3349 40.7557 34.4075C41.5719 35.4051 43.1862 36.2213 44.873 36.2213C46.4147 36.2213 47.3035 35.5683 47.3035 34.5889C47.3035 33.3918 45.9613 33.0653 44.3833 32.7025C42.4788 32.2854 39.9577 31.5417 39.9577 28.6759C39.9577 26.5901 41.4268 25.1028 43.7666 24.6675V23.8694C43.7666 22.8718 44.1294 22.4002 45 22.4002H45.127C46.0157 22.4002 46.3603 22.8537 46.3603 23.8694V24.6131C48.7545 24.8488 50.0786 25.9371 50.0786 27.0435Z" fill="#E5AA17"/>
<path d="M47.2854 34.5707C47.2854 33.3736 45.9432 33.0472 44.3652 32.6844C44.2564 32.6663 44.1294 32.63 44.0206 32.6118L41.5357 35.0967C42.4063 35.7316 43.6215 36.2031 44.873 36.2031C46.3966 36.2031 47.2854 35.5502 47.2854 34.5707Z" fill="#F2D55A"/>
<path d="M54.3773 22.237L50.0061 26.6082C50.0423 26.7533 50.0786 26.8984 50.0786 27.0435C50.0786 28.023 48.9722 28.7122 48.9178 28.6215C48.7727 28.4583 48.6276 28.3132 48.4643 28.1681L46.1608 30.4716C48.0834 30.925 50.3869 31.7956 50.3869 34.4619C50.3869 36.6566 48.8634 38.162 46.3422 38.5611V39.4135C46.3422 40.4111 45.9613 40.8827 45.0907 40.8827H44.9819C44.075 40.8827 43.7485 40.4293 43.7485 39.4135V38.6155C41.7533 38.3978 40.4111 37.6542 39.8851 36.7836L35.6409 41.0278C40.8283 46.2152 49.208 46.2152 54.3954 41.0278C59.5647 35.8222 59.5647 27.4244 54.3773 22.237Z" fill="#F2D55A"/>
<path d="M40.7376 34.3894C40.6469 34.2987 39.6131 34.9698 39.6131 35.9129C39.6131 36.2031 39.7037 36.4933 39.867 36.7654L41.5175 35.1149C41.2092 34.8791 40.9553 34.6433 40.7376 34.3894Z" fill="#EFB533"/>
<path d="M48.9178 28.6215C48.9903 28.7122 50.0786 28.023 50.0786 27.0435C50.0786 26.8984 50.0605 26.7533 50.0061 26.6082L48.4462 28.1681C48.6276 28.3132 48.7727 28.4583 48.9178 28.6215Z" fill="#E5AA17"/>
<path d="M51.711 53.8875C51.711 53.8875 48.029 54.7219 45.7255 54.6493C44.5466 54.6131 42.1886 55.2842 39.7944 56.1548C37.4909 57.0073 35.1693 57.1886 34.9335 57.9323C34.2624 59.9819 37.6904 60.5804 38.0895 60.5986C41.4087 60.7437 45.4897 60.0544 45.4897 60.0544L50.0423 60.2902L51.711 53.8875Z" fill="#E5AD88"/>
<path d="M42.9867 68.4704C44.1838 68.1439 43.1862 65.0786 42.8597 63.8996C42.5332 62.7207 41.4087 62.4123 41.4087 62.4123L33.9178 62.902L23.3797 61.6868C22.4365 61.7049 21.2938 61.6505 21.058 62.7751C20.7316 64.2805 22.5998 64.5707 24.5224 65.0604C26.4268 65.532 33.8271 66.8742 33.8271 66.8742L42.9867 68.4704Z" fill="#E5AD88"/>
<path d="M89.0024 35.5502C76.8501 44.5103 63.0472 54.7944 62.2491 54.3591C61.1064 53.7424 54.2322 53.0351 50.786 54.0326L47.6663 59.9093L44.5466 61.4873C43.2769 61.9045 40.4837 62.63 40.4837 62.63L41.2092 68.1802C43.0048 68.5611 43.7848 68.5792 45.7618 68.2346C48.4281 67.7811 51.5115 67.7993 59.8912 66.2757C59.8912 66.2757 76.6143 60.6348 88.6578 55.9008C89.5284 52.4002 90 48.7545 90 45C90 41.7533 89.6554 38.5973 89.0024 35.5502Z" fill="#E5AD88"/>
</g>
<defs>
<clipPath id="clip0_1_2">
<rect width="90" height="90" fill="white"/>
</clipPath>
</defs>
</svg>
