<svg xmlns="http://www.w3.org/2000/svg" xmlns:xlink="http://www.w3.org/1999/xlink" width="175" height="34" viewBox="0 0 175 34">
  <defs>
    <linearGradient id="linear-gradient" x1="0.5" x2="0.5" y2="1" gradientUnits="objectBoundingBox">
      <stop offset="0" stop-color="#667eea"/>
      <stop offset="1" stop-color="#64b6ff"/>
    </linearGradient>
  </defs>
  <g id="Group_196" data-name="Group 196" transform="translate(-924 -755)">
    <text id="ED_s_closet" data-name="ED&apos;s closet" transform="translate(994 781)" fill="#171515" font-size="21" font-family="SegoeUI-Bold, Segoe UI" font-weight="700"><tspan x="0" y="0">ED&apos;s closet</tspan></text>
    <path id="noun_cloth_2129414" d="M437.579,458a1.345,1.345,0,0,1-1.3-.842l-3.26-8.312H418.69A2.653,2.653,0,0,1,416,446.23V426.615A2.654,2.654,0,0,1,418.7,424h18.843a1.35,1.35,0,0,1,1.218.751l4.07,8.4h16.252a2.653,2.653,0,0,1,2.69,2.615v19.615a2.654,2.654,0,0,1-2.7,2.615Zm-.895-31.384H418.7s0,6.538,0,19.615h27.494Zm7.41,9.154,5.432,11.212a1.282,1.282,0,0,1-.332,1.541l-8.073,6.862h17.952s0-6.538,0-19.615Zm-5.986,18.7,6.617-5.624H435.9Z" transform="translate(508 331)" fill="url(#linear-gradient)"/>
  </g>
</svg>
