<svg xmlns="http://www.w3.org/2000/svg" width="175" height="32" viewBox="0 0 175 32">
  <g id="Group_197" data-name="Group 197" transform="translate(-516 -2333)">
    <text id="ED_s_closet" data-name="ED&apos;s closet" transform="translate(586 2358)" fill="#fff" font-size="21" font-family="SegoeUI-Bold, Segoe UI" font-weight="700"><tspan x="0" y="0">ED&apos;s closet</tspan></text>
    <path id="noun_cloth_2129414" d="M437.579,456a1.351,1.351,0,0,1-1.3-.793l-3.26-7.823H418.69a2.583,2.583,0,0,1-2.69-2.462V426.462A2.584,2.584,0,0,1,418.7,424h18.843a1.361,1.361,0,0,1,1.218.707l4.07,7.909H459.08a2.583,2.583,0,0,1,2.69,2.461v18.461a2.584,2.584,0,0,1-2.7,2.461Zm-.895-29.538H418.7s0,6.154,0,18.461h27.494Zm7.41,8.615,5.432,10.552a1.159,1.159,0,0,1-.332,1.45l-8.073,6.458h17.953s0-6.154,0-18.461Zm-5.986,17.6,6.617-5.293H435.9Z" transform="translate(100 1909)" fill="#fff"/>
  </g>
</svg>
